/vscmnt/brussel_pixiu_data/_data_brussel/112/vsc11236/PredSimResults/SUBJ09opt3D/trackIG/worker_11.mot
version=1
nRows=4
nColumns=50
inDegrees=yes
endheader
                time	         pelvis_tilt	         pelvis_list	     pelvis_rotation	           pelvis_tx	           pelvis_ty	           pelvis_tz	       hip_flexion_r	     hip_adduction_r	      hip_rotation_r	        knee_angle_r	       ankle_angle_r	         mtp_angle_r	       hip_flexion_l	     hip_adduction_l	      hip_rotation_l	        knee_angle_l	       ankle_angle_l	         mtp_angle_l	    lumbar_extension	      lumbar_bending	     lumbar_rotation	 ercspn_r/activation	 intobl_r/activation	 extobl_r/activation	    abd_r/activation	    add_r/activation	hamstrings_r/activation	bifemsh_r/activation	glut_max_r/activation	iliopsoas_r/activation	rect_fem_r/activation	  vasti_r/activation	gastroc_r/activation	 soleus_r/activation	tib_ant_r/activation	 ercspn_l/activation	 intobl_l/activation	 extobl_l/activation	    abd_l/activation	    add_l/activation	hamstrings_l/activation	bifemsh_l/activation	glut_max_l/activation	iliopsoas_l/activation	rect_fem_l/activation	  vasti_l/activation	gastroc_l/activation	 soleus_l/activation	tib_ant_l/activation	
          1.09170644	         -5.76321949	         -2.81713338	          9.51155528	          1.74673031	          0.97420880	         -0.00389914	         33.00192871	         -0.58020693	         -9.16766948	         -7.57370155	          6.11719781	          0.26911920	        -16.58096903	         -4.41692981	         -1.95407975	         -9.34960757	          0.46809083	         41.82135336	        -12.26414536	          1.89309792	         -7.16017476	          0.05888671	          0.12977604	          0.01397007	          0.01193681	          0.30927095	          0.09947728	          0.18569611	          0.21930587	          0.14411259	          0.00999999	          0.00999999	          0.02306732	          0.01079227	          0.39977433	          0.04467677	          0.00999999	          0.00999999	          0.02049572	          0.10814092	          0.02570767	          0.22345171	          0.01397007	          0.23439134	          0.00999999	          0.00999999	          0.31495217	          0.17147116	          0.01420484	
          1.10262351	         -5.71879222	         -2.97133610	          9.48507523	          1.76912037	          0.97177239	         -0.00340113	         32.98421507	         -0.36100542	         -9.27986425	         -9.84792409	          5.62682715	          0.21197378	        -16.93097296	         -4.79611506	         -2.47722583	        -10.93935253	         -1.00721837	         43.45781450	        -11.74803338	          2.29194067	         -7.34037495	          0.04982162	          0.10979815	          0.01181950	          0.15490351	          0.31972609	          0.08680012	          0.15710981	          0.29906207	          0.12192771	          0.00999999	          0.00999999	          0.01951630	          0.01181950	          0.45349146	          0.09535072	          0.00999999	          0.00999999	          0.01734058	          0.09149357	          0.02175020	          0.18905327	          0.01181950	          0.31346214	          0.00999999	          0.00999999	          0.26646803	          0.14507467	          0.01201813	
          1.11354057	         -5.66118124	         -3.11238388	          9.41636866	          1.79137882	          0.96970451	         -0.00279770	         32.90835583	         -0.13133200	         -9.32816572	        -12.02921534	          5.05512845	          0.19524936	        -16.88326798	         -5.17881966	         -3.01035869	        -13.24839544	         -2.45544575	         44.67675986	        -11.26609166	          2.67347768	         -7.48163059	          0.04686039	          0.09289568	          0.00999999	          0.20851536	          0.32412824	          0.07343799	          0.13292413	          0.35282115	          0.10315800	          0.00999999	          0.01073345	          0.01651194	          0.00999999	          0.50695376	          0.08084390	          0.00999999	          0.00999999	          0.01467115	          0.07740893	          0.01840195	          0.15995016	          0.00999999	          0.38049757	          0.00999999	          0.00999999	          0.22544760	          0.12274169	          0.01016804	
          1.12445763	         -5.59159153	         -3.24983288	          9.30936917	          1.81315282	          0.96821886	         -0.00207889	         32.93334489	          0.10986928	         -9.31217623	        -14.35363584	          4.51383964	          0.14992079	        -16.33177547	         -5.58959126	         -3.54622238	        -16.43181910	         -3.76969650	         45.07152758	        -10.85892142	          3.05200697	         -7.57897062	          0.07033327	          0.07859520	          0.00999999	          0.24356196	          0.34887966	          0.06213285	          0.11246162	          0.37089386	          0.08727772	          0.00999999	          0.16834488	          0.01397007	          0.00999999	          0.53676115	          0.15307962	          0.00999999	          0.00999999	          0.01241265	          0.14252186	          0.01556913	          0.13532723	          0.00999999	          0.32192328	          0.00999999	          0.00999999	          0.19074190	          0.10384667	          0.00999999	
